<?xml version="1.0" standalone="no"?>
<!DOCTYPE svg PUBLIC "-//W3C//DTD SVG 20010904//EN"
 "http://www.w3.org/TR/2001/REC-SVG-20010904/DTD/svg10.dtd">
<svg version="1.0" xmlns="http://www.w3.org/2000/svg"
 width="700.000000pt" height="700.000000pt" viewBox="0 0 700.000000 700.000000"
 preserveAspectRatio="xMidYMid meet">
<metadata>
Created by potrace 1.11, written by Peter Selinger 2001-2013
</metadata>
<g transform="translate(0.000000,700.000000) scale(0.100000,-0.100000)"
fill="#000000" stroke="none">
<path d="M5780 6545 l-23 -25 0 -800 c0 -440 -3 -800 -6 -801 -3 -1 -688 -2
-1521 -3 -833 -1 -1522 -5 -1530 -9 -41 -19 -42 -25 -41 -633 0 -604 1 -612
41 -631 8 -4 348 -8 755 -9 407 -1 743 -3 747 -3 9 -1 11 -1782 3 -1803 -4
-10 -151 -13 -743 -12 -808 2 -784 3 -797 -57 -4 -17 -7 -312 -7 -657 l0 -626
27 -23 c45 -39 120 -21 130 32 2 11 4 279 4 595 l1 576 738 -1 c778 -1 778 -1
802 44 7 13 10 354 10 1023 0 968 -1 1004 -19 1034 -11 17 -30 33 -43 35 -12
2 -353 4 -756 4 l-732 -1 2 480 3 481 1515 0 c1613 1 1551 -1 1569 48 5 12 8
406 7 875 l-1 854 -24 19 c-33 27 -82 25 -111 -6z"/>
<path d="M1179 6492 l-97 -3 0 -664 c1 -482 4 -665 12 -667 9 -3 1282 -2 1312
1 9 1 12 180 12 666 l0 665 -47 0 c-611 4 -1117 4 -1192 2z"/>
<path d="M2673 6492 l-43 -3 0 -664 c0 -521 3 -664 13 -667 10 -3 1299 -2
1318 1 4 1 7 300 7 666 l1 665 -22 0 c-139 3 -1243 4 -1274 2z"/>
<path d="M4287 6492 l-107 -3 2 -666 3 -667 655 -1 c360 -1 660 1 666 2 7 3
11 200 11 668 l0 665 -51 1 c-191 2 -1091 3 -1179 1z"/>
<path d="M1129 4942 l-46 -3 0 -664 -1 -665 37 -1 c44 -1 1283 -1 1292 0 4 1
7 300 7 666 0 607 -2 665 -17 666 -52 2 -1234 3 -1272 1z"/>
<path d="M1085 3390 c-1 -3 -3 -303 -3 -667 0 -605 2 -663 17 -664 92 -4 1301
0 1309 4 6 4 10 238 10 667 0 604 -2 660 -17 661 -72 4 -1314 3 -1316 -1z"/>
<path d="M2658 3392 l-28 -3 0 -665 0 -664 23 -1 c28 -1 1300 -1 1308 0 9 1 9
1331 1 1332 -22 2 -1282 3 -1304 1z"/>
<path d="M1090 1840 c-13 -8 -9 -1330 4 -1330 12 -1 1269 -1 1302 0 l22 0 0
665 c0 366 -3 665 -7 666 -25 4 -1315 3 -1321 -1z"/>
</g>
</svg>
