<?xml version="1.0" standalone="no"?>
<!DOCTYPE svg PUBLIC "-//W3C//DTD SVG 20010904//EN"
 "http://www.w3.org/TR/2001/REC-SVG-20010904/DTD/svg10.dtd">
<svg version="1.0" xmlns="http://www.w3.org/2000/svg"
 width="700.000000pt" height="700.000000pt" viewBox="0 0 700.000000 700.000000"
 preserveAspectRatio="xMidYMid meet">
<metadata>
Created by potrace 1.14, written by Peter Selinger 2001-2017
</metadata>
<g transform="translate(0.000000,700.000000) scale(0.100000,-0.100000)"
fill="#000000" stroke="none">
<path d="M5862 6635 c-17 -8 -35 -22 -41 -34 -8 -13 -11 -271 -11 -835 l0
-816 -1560 0 -1559 0 -26 -25 c-19 -20 -25 -36 -26 -73 -5 -433 1 -1154 10
-1171 25 -45 17 -45 811 -46 415 -1 757 -3 760 -3 3 -1 5 -418 5 -927 l0 -925
-25 -1 c-14 0 -356 -1 -760 -1 -648 -1 -738 -2 -762 -16 -15 -9 -30 -23 -33
-31 -5 -12 -8 -794 -5 -1259 0 -56 3 -67 28 -91 33 -34 78 -32 113 5 l22 24 0
600 c0 540 2 600 16 601 9 0 355 1 769 2 l754 2 24 28 24 28 0 1029 c0 733 -3
1036 -11 1053 -6 14 -21 30 -33 36 -15 8 -244 12 -781 14 l-760 2 0 490 0 490
1551 0 c1682 0 1593 -3 1611 54 7 19 10 1683 4 1748 -1 16 -38 50 -60 56 -10
2 -32 -1 -49 -8z"/>
<path d="M1037 6560 c-9 -4 -12 -160 -12 -685 l0 -680 679 0 c373 0 680 4 683
8 7 12 6 1347 -1 1354 -7 8 -1331 10 -1349 3z"/>
<path d="M2632 6562 l-22 -3 2 -682 3 -682 680 0 680 0 2 683 c2 526 -1 682
-10 683 -42 2 -1316 3 -1335 1z"/>
<path d="M4199 6550 c-5 -85 -3 -1329 2 -1340 6 -13 90 -15 681 -14 370 1 675
2 678 3 8 2 6 1349 -2 1357 -5 4 -312 8 -683 8 -593 1 -675 -1 -676 -14z"/>
<path d="M1026 4971 c-1 -4 -2 -310 -2 -681 l1 -675 683 -3 682 -2 1 117 c0
65 0 372 1 683 l0 565 -682 1 c-375 0 -682 -2 -684 -5z"/>
<path d="M1028 3383 c-4 -7 -2 -1319 1 -1349 1 -7 201 -11 681 -10 l680 0 0
25 c1 14 2 322 3 684 l2 657 -682 0 c-375 0 -683 -3 -685 -7z"/>
<path d="M2610 2707 l0 -683 685 0 684 -1 0 684 0 683 -684 0 -685 0 0 -683z"/>
<path d="M1029 1800 c-7 -28 -2 -1353 5 -1358 13 -7 1336 -8 1348 -1 7 5 10
217 10 655 0 357 -1 663 -1 679 l-1 30 -680 0 c-374 0 -681 -2 -681 -5z"/>
</g>
</svg>
