<?xml version="1.0" encoding="UTF-8" standalone="no"?>
<!-- Created with Inkscape (http://www.inkscape.org/) -->

<svg
   xmlns:dc="http://purl.org/dc/elements/1.1/"
   xmlns:cc="http://creativecommons.org/ns#"
   xmlns:rdf="http://www.w3.org/1999/02/22-rdf-syntax-ns#"
   xmlns:svg="http://www.w3.org/2000/svg"
   xmlns="http://www.w3.org/2000/svg"
   xmlns:sodipodi="http://sodipodi.sourceforge.net/DTD/sodipodi-0.dtd"
   xmlns:inkscape="http://www.inkscape.org/namespaces/inkscape"
   width="96"
   height="68.000122"
   viewBox="0 0 25.4 17.991699"
   version="1.1"
   id="svg8"
   inkscape:version="0.92.1 r15371"
   sodipodi:docname="icon-camera.svg">
  <defs
     id="defs2" />
  <sodipodi:namedview
     id="base"
     pagecolor="#ffffff"
     bordercolor="#666666"
     borderopacity="1.0"
     inkscape:pageopacity="0.0"
     inkscape:pageshadow="2"
     inkscape:zoom="11.313709"
     inkscape:cx="57.598075"
     inkscape:cy="45.827028"
     inkscape:document-units="mm"
     inkscape:current-layer="layer1"
     showgrid="true"
     units="px"
     inkscape:window-width="1920"
     inkscape:window-height="1017"
     inkscape:window-x="-8"
     inkscape:window-y="-8"
     inkscape:window-maximized="1"
     fit-margin-top="0"
     fit-margin-left="0"
     fit-margin-right="0"
     fit-margin-bottom="0">
    <inkscape:grid
       type="xygrid"
       id="grid4485"
       empspacing="1"
       originx="0"
       originy="3.0476837e-005" />
  </sodipodi:namedview>
  <metadata
     id="metadata5">
    <rdf:RDF>
      <cc:Work
         rdf:about="">
        <dc:format>image/svg+xml</dc:format>
        <dc:type
           rdf:resource="http://purl.org/dc/dcmitype/StillImage" />
        <dc:title />
      </cc:Work>
    </rdf:RDF>
  </metadata>
  <g
     inkscape:label="Layer 1"
     inkscape:groupmode="layer"
     id="layer1"
     transform="translate(0,-279.0083)">
    <path
       style="fill:#ffffff;fill-opacity:1;stroke:none;stroke-width:0.99999994px;stroke-linecap:butt;stroke-linejoin:miter;stroke-opacity:1"
       d="M 40 8 L 33 14 L 5 14 L 5 24 L 14 24 L 16 21 L 18 21 L 20 24 L 32.566406 24 L 38 21 L 48 18 L 59 21 L 63 24 L 91 24 L 91 8 L 40 8 z M 77 12 L 86 12 C 86.553988 12 87 12.446012 87 13 L 87 19 C 87 19.553988 86.553988 20 86 20 L 77 20 C 76.446012 20 76 19.553988 76 19 L 76 13 C 76 12.446012 76.446012 12 77 12 z "
       transform="matrix(0.26458333,0,0,0.26458333,0,279.0083)"
       id="path4494" />
    <path
       style="fill:none;stroke:#ffffff;stroke-width:0.5291667;stroke-linecap:butt;stroke-linejoin:round;stroke-miterlimit:4;stroke-dasharray:none;stroke-opacity:1"
       d="m 1.3229166,282.71247 v 12.96459 H 24.077083 v -14.55209 l -13.49375,0 -1.8520831,1.5875 H 1.3229166 v 12.96459"
       id="path5183"
       inkscape:connector-curvature="0"
       sodipodi:nodetypes="cccccccc" />
    <rect
       style="opacity:1;fill:#ffffff;fill-opacity:1;stroke:none;stroke-width:0.52916664;stroke-linecap:butt;stroke-linejoin:round;stroke-miterlimit:4;stroke-dasharray:none;stroke-opacity:1;paint-order:normal"
       id="rect5189"
       width="2.3812499"
       height="1.3229116"
       x="2.1166668"
       y="281.38956"
       ry="0.26457778" />
    <rect
       ry="0.26457778"
       y="281.38956"
       x="5.2916665"
       height="1.3229116"
       width="2.3812499"
       id="rect5191"
       style="opacity:1;fill:#ffffff;fill-opacity:1;stroke:none;stroke-width:0.52916664;stroke-linecap:butt;stroke-linejoin:round;stroke-miterlimit:4;stroke-dasharray:none;stroke-opacity:1;paint-order:normal" />
    <path
       style="opacity:1;fill:#ffffff;fill-opacity:1;stroke:none;stroke-width:1.99999988;stroke-linecap:butt;stroke-linejoin:round;stroke-miterlimit:4;stroke-dasharray:none;stroke-opacity:1;paint-order:normal"
       d="M 6 23 C 5.4460116 23 5 23.446012 5 24 C 5 24.553988 5.4460116 25 6 25 L 14.173828 25 A 3 3 0 0 1 14 24 A 3 3 0 0 1 14.175781 23 L 6 23 z M 19.826172 23 A 3 3 0 0 1 20 24 A 3 3 0 0 1 19.824219 25 L 33.208984 25 A 22 22 0 0 1 35.416016 23 L 19.826172 23 z M 62.474609 23 A 22 22 0 0 1 64.742188 25 L 90 25 C 90.553988 25 91 24.553988 91 24 C 91 23.446012 90.553988 23 90 23 L 62.474609 23 z "
       transform="matrix(0.26458333,0,0,0.26458333,0,279.0083)"
       id="rect5193" />
    <circle
       style="opacity:1;fill:none;fill-opacity:1;stroke:#ffffff;stroke-width:0.5291667;stroke-linecap:round;stroke-linejoin:round;stroke-miterlimit:4;stroke-dasharray:none;stroke-opacity:1;paint-order:normal"
       id="path5207"
       cx="12.7"
       cy="289.6781"
       r="5.8208332" />
    <circle
       style="opacity:1;fill:none;fill-opacity:1;stroke:#ffffff;stroke-width:0.61674786;stroke-linecap:round;stroke-linejoin:round;stroke-miterlimit:4;stroke-dasharray:none;stroke-opacity:1;paint-order:normal"
       id="path5214"
       cx="12.7"
       cy="289.6781"
       r="3.9249594" />
    <circle
       style="opacity:1;fill:none;fill-opacity:1;stroke:#ffffff;stroke-width:0.52916664;stroke-linecap:round;stroke-linejoin:round;stroke-miterlimit:4;stroke-dasharray:none;stroke-opacity:1;paint-order:normal"
       id="path5216"
       cx="4.4979167"
       cy="285.35831"
       r="0.79374999" />
    <path
       style="opacity:1;fill:none;fill-opacity:1;stroke:#ffffff;stroke-width:1.99999988;stroke-linecap:round;stroke-linejoin:round;stroke-miterlimit:4;stroke-dasharray:none;stroke-opacity:1;paint-order:normal"
       d="M 71 37.326172 A 3 3 0 0 0 69.800781 37.580078 A 22 22 0 0 1 70 40.326172 A 22 22 0 0 1 69.806641 43.078125 A 3 3 0 0 0 71 43.326172 A 3 3 0 0 0 74 40.326172 A 3 3 0 0 0 71 37.326172 z "
       transform="matrix(0.26458333,0,0,0.26458333,0,279.0083)"
       id="path5221" />
  </g>
</svg>
