<?xml version="1.0" encoding="UTF-8" standalone="no"?>
<!-- Created with Inkscape (http://www.inkscape.org/) -->

<svg
   xmlns:dc="http://purl.org/dc/elements/1.1/"
   xmlns:cc="http://creativecommons.org/ns#"
   xmlns:rdf="http://www.w3.org/1999/02/22-rdf-syntax-ns#"
   xmlns:svg="http://www.w3.org/2000/svg"
   xmlns="http://www.w3.org/2000/svg"
   xmlns:sodipodi="http://sodipodi.sourceforge.net/DTD/sodipodi-0.dtd"
   xmlns:inkscape="http://www.inkscape.org/namespaces/inkscape"
   width="24"
   height="24"
   viewBox="0 0 6.35 6.35"
   version="1.1"
   id="svg8"
   inkscape:version="0.92.1 r15371"
   sodipodi:docname="icon-exposure.svg">
  <defs
     id="defs2" />
  <sodipodi:namedview
     id="base"
     pagecolor="#ffffff"
     bordercolor="#666666"
     borderopacity="1.0"
     inkscape:pageopacity="0.0"
     inkscape:pageshadow="2"
     inkscape:zoom="32"
     inkscape:cx="17.846313"
     inkscape:cy="17.112185"
     inkscape:document-units="mm"
     inkscape:current-layer="layer1"
     showgrid="true"
     units="px"
     inkscape:window-width="1920"
     inkscape:window-height="1017"
     inkscape:window-x="-8"
     inkscape:window-y="-8"
     inkscape:window-maximized="1"
     inkscape:snap-bbox="true"
     inkscape:snap-intersection-paths="true"
     inkscape:object-paths="true"
     inkscape:snap-smooth-nodes="true"
     inkscape:snap-midpoints="true"
     inkscape:snap-center="true"
     inkscape:measure-start="8,24"
     inkscape:measure-end="16,23">
    <inkscape:grid
       type="xygrid"
       id="grid4485"
       empspacing="1" />
  </sodipodi:namedview>
  <metadata
     id="metadata5">
    <rdf:RDF>
      <cc:Work
         rdf:about="">
        <dc:format>image/svg+xml</dc:format>
        <dc:type
           rdf:resource="http://purl.org/dc/dcmitype/StillImage" />
        <dc:title></dc:title>
      </cc:Work>
    </rdf:RDF>
  </metadata>
  <g
     inkscape:label="Layer 1"
     inkscape:groupmode="layer"
     id="layer1"
     transform="translate(0,-290.64997)">
    <path
       style="opacity:1;fill:#ffffff;fill-opacity:1;stroke:none;stroke-width:0.60132581;stroke-linecap:round;stroke-linejoin:round;stroke-miterlimit:4;stroke-dasharray:none;stroke-opacity:1;paint-order:stroke fill markers"
       d="M 3.175,291.17914 A 2.6458333,2.6458333 0 0 0 0.52916667,293.82497 2.6458333,2.6458333 0 0 0 3.175,296.47081 2.6458333,2.6458333 0 0 0 5.8208333,293.82497 2.6458333,2.6458333 0 0 0 3.175,291.17914 Z m 0,0.24052 A 2.4053029,2.4053029 0 0 1 5.580303,293.82497 2.4053029,2.4053029 0 0 1 3.175,296.23027 2.4053029,2.4053029 0 0 1 0.76969697,293.82497 2.4053029,2.4053029 0 0 1 3.175,291.41966 Z"
       id="path4487"
       inkscape:connector-curvature="0" />
    <path
       style="opacity:1;fill:#ffffff;fill-opacity:1;stroke:none;stroke-width:0.52916664;stroke-linecap:round;stroke-linejoin:round;stroke-miterlimit:4;stroke-dasharray:none;stroke-opacity:1;paint-order:stroke fill markers"
       d="m 2.7651566,293.49023 a 0.52916663,0.52916663 0 0 0 -0.016563,0.64769 l -0.2749146,0.3366 c -0.039081,0.0479 -0.032032,0.11795 0.015841,0.15706 l 0.032032,0.0262 c 0.047881,0.0391 0.1179643,0.032 0.1570457,-0.0159 l 0.275242,-0.337 a 0.52916663,0.52916663 0 0 0 0.6310022,-0.14518 0.52916663,0.52916663 0 0 0 0.016563,-0.64769 l 0.9443856,-1.15628 c 0.039081,-0.0479 0.032032,-0.11794 -0.015841,-0.15706 l -0.032033,-0.0262 c -0.047881,-0.0391 -0.1179643,-0.032 -0.1570457,0.0159 l -0.9447131,1.15668 a 0.52916663,0.52916663 0 0 0 -0.6310011,0.14518 z m 0.2049238,0.16738 a 0.26458331,0.26458331 45 0 1 0.2472744,-0.0936 0.26458331,0.26458331 45 0 1 0.00336,6.9e-4 0.26458331,0.26458331 45 0 1 0.022524,0.005 0.26458331,0.26458331 45 0 1 0.021623,0.007 0.26458331,0.26458331 45 0 1 0.00336,6.8e-4 0.26458331,0.26458331 45 0 1 0.013034,0.005 0.26458331,0.26458331 45 0 1 0.011065,0.005 0.26458331,0.26458331 45 0 1 0.00334,0.002 0.26458331,0.26458331 45 0 1 0.018313,0.0103 0.26458331,0.26458331 45 0 1 0.00148,4.3e-4 0.26458331,0.26458331 45 0 1 0.00188,0.001 0.26458331,0.26458331 45 0 1 0.016587,0.0115 0.26458331,0.26458331 45 0 1 0.00307,0.002 0.26458331,0.26458331 45 0 1 0.00499,0.004 0.26458331,0.26458331 45 0 1 0.019448,0.0179 0.26458331,0.26458331 45 0 1 0.060147,0.0938 0.26458331,0.26458331 45 0 1 -0.042027,0.26058 0.26458331,0.26458331 45 0 1 -0.2472744,0.0936 0.26458331,0.26458331 45 0 1 -0.00336,-6.9e-4 0.26458331,0.26458331 45 0 1 -0.022524,-0.005 0.26458331,0.26458331 45 0 1 -0.021623,-0.007 0.26458331,0.26458331 45 0 1 -0.0092,-0.004 0.26458331,0.26458331 45 0 1 -0.013408,-0.006 0.26458331,0.26458331 45 0 1 -0.00835,-0.004 0.26458331,0.26458331 45 0 1 -0.018312,-0.0103 0.26458331,0.26458331 45 0 1 -0.00334,-0.002 0.26458331,0.26458331 45 0 1 -0.016587,-0.0115 0.26458331,0.26458331 45 0 1 -0.00809,-0.006 0.26458331,0.26458331 45 0 1 -0.019448,-0.0179 0.26458331,0.26458331 45 0 1 -0.060148,-0.0938 0.26458331,0.26458331 45 0 1 0.042027,-0.26059 z"
       id="path5083"
       inkscape:connector-curvature="0"
       inkscape:transform-center-x="-0.33473475"
       inkscape:transform-center-y="-0.40984496" />
    <rect
       style="opacity:1;fill:#ffffff;fill-opacity:1;stroke:none;stroke-width:0.52916664;stroke-linecap:round;stroke-linejoin:round;stroke-miterlimit:4;stroke-dasharray:none;stroke-opacity:1;paint-order:stroke fill markers"
       id="rect5095"
       width="1.5875"
       height="0.26458332"
       x="2.3812499"
       y="290.64996"
       ry="0.13229166" />
    <rect
       ry="0.13229039"
       y="221.78882"
       x="188.50647"
       height="0.26458997"
       width="1.0583334"
       id="rect5097"
       style="opacity:1;fill:#ffffff;fill-opacity:1;stroke:none;stroke-width:0.52916664;stroke-linecap:round;stroke-linejoin:round;stroke-miterlimit:4;stroke-dasharray:none;stroke-opacity:1;paint-order:stroke fill markers"
       inkscape:transform-center-y="-2.3504957"
       transform="rotate(39.421015)"
       inkscape:transform-center-x="-1.9321738" />
  </g>
</svg>
