<?xml version="1.0" encoding="UTF-8" standalone="no"?>
<svg
   xmlns:dc="http://purl.org/dc/elements/1.1/"
   xmlns:cc="http://creativecommons.org/ns#"
   xmlns:rdf="http://www.w3.org/1999/02/22-rdf-syntax-ns#"
   xmlns:svg="http://www.w3.org/2000/svg"
   xmlns="http://www.w3.org/2000/svg"
   xmlns:sodipodi="http://sodipodi.sourceforge.net/DTD/sodipodi-0.dtd"
   xmlns:inkscape="http://www.inkscape.org/namespaces/inkscape"
   id="a525f49c-389c-445f-ad2c-d5c197cff10c"
   data-name="Layer 1"
   width="760"
   height="677.41447"
   viewBox="0 0 760 677.41447"
   version="1.1"
   sodipodi:docname="coffee.svg"
   inkscape:version="0.92.3 (2405546, 2018-03-11)">
  <metadata
     id="metadata65">
    <rdf:RDF>
      <cc:Work
         rdf:about="">
        <dc:format>image/svg+xml</dc:format>
        <dc:type
           rdf:resource="http://purl.org/dc/dcmitype/StillImage" />
      </cc:Work>
    </rdf:RDF>
  </metadata>
  <defs
     id="defs63" />
  <sodipodi:namedview
     pagecolor="#ffffff"
     bordercolor="#666666"
     borderopacity="1"
     objecttolerance="10"
     gridtolerance="10"
     guidetolerance="10"
     inkscape:pageopacity="0"
     inkscape:pageshadow="2"
     inkscape:window-width="1920"
     inkscape:window-height="1015"
     id="namedview61"
     showgrid="false"
     inkscape:zoom="1.9707544"
     inkscape:cx="317.90475"
     inkscape:cy="268.37431"
     inkscape:window-x="0"
     inkscape:window-y="40"
     inkscape:window-maximized="1"
     inkscape:current-layer="a525f49c-389c-445f-ad2c-d5c197cff10c" />
  <title
     id="title2">cup_of_tea</title>
  <path
     d="M503.2,592.89274l-87.38,144.21.18,14.65q-9.585.07508-18.99-.31994l4.35-188.33-.12-1.45.16-.28.41-17.8-95.88-139.21L401.7,530.25272l.34,3.76,3.28-142.29-82.82-144.32,83.06,119.33-.57-192.44-.18-63h.84l1.49,63,3.08,129.97,75.47-94.38-75.23,114.39,1.65,127.28,69.46-124.22-69.2,142.93.91,70.77,101.01-173.03L413.59,565.72276l2.05,157.37Z"
     transform="translate(-220 -111.29276)"
     fill="#e6e6e6"
     id="path4" />
  <polygon
     points="682.29 438.71 654.64 493 585.37 629 569.47 629 569.81 614.28 486.28 493 473.93 475.07 487.57 493 569.7 600.96 570.04 604.72 572.62 493 573.32 462.43 490.5 318.11 573.56 437.44 572.69 142.65 572.69 141.67 572.72 142.64 578.22 374.97 653.69 280.59 578.46 394.98 579.73 493 580.11 522.26 596.47 493 649.57 398.04 603.59 493 580.37 540.97 581.28 611.74 650.6 493 682.29 438.71"
     fill="#e6e6e6"
     id="polygon6" />
  <path
     d="M859.79064,738.38466c0,12.57275-116.406,50.32258-260,50.32258s-260-37.74983-260-50.32258,116.406,4.79262,260,4.79262S859.79064,725.81191,859.79064,738.38466Z"
     transform="translate(-220 -111.29276)"
     fill="#3f3d56"
     id="path8" />
  <path
     d="M859.79064,738.38466c0,12.57275-116.406,50.32258-260,50.32258s-260-37.74983-260-50.32258,116.406,4.79262,260,4.79262S859.79064,725.81191,859.79064,738.38466Z"
     transform="translate(-220 -111.29276)"
     opacity="0.2"
     id="path10" />
  <ellipse
     cx="379.79064"
     cy="627.09189"
     rx="260"
     ry="22.76498"
     fill="#3f3d56"
     id="ellipse12" />
  <ellipse
     cx="377.79064"
     cy="629.3707"
     rx="107"
     ry="10"
     opacity="0.2"
     id="ellipse14" />
  <path
     d="M806.17052,510.92322H689.29064v.74024h-279.5v40.50018c0,104.10559,84.39423,188.49982,188.49982,188.49982h.00036a188.40822,188.40822,0,0,0,162.83246-93.5h45.04724a68.12012,68.12012,0,1,0,0-136.24024Zm0,115.24024H771.70306a187.87964,187.87964,0,0,0,15.08758-73.99982V531.92322h19.37988a47.12012,47.12012,0,1,1,0,94.24024Z"
     id="path16"
     fill="#3f3d56"
     transform="translate(-220 -111.29276)" />
  <path
     d="M427.29064,529.16346v23c0,94.29,76.71045,171,171,171,94.29,0,171-76.71,171-171v-23Z"
     transform="translate(-220 -111.29276)"
     fill="#6c757d"
     id="path18" />
  <path
     d="M364.60985,734.89808c32.6679,7.28769,68.72037,1.90328,68.72037,1.90328s-16.91266-17.20008-49.58055-24.48776-68.72037-1.90329-68.72037-1.90329S331.942,727.61039,364.60985,734.89808Z"
     transform="translate(-220 -111.29276)"
     fill="#e6e6e6"
     id="path32" />
  <path
     d="M367.83212,747.1873c35.56617,1.02625,65.74587-10.43588,65.74587-10.43588a173.12291,173.12291,0,0,0-63.05059-14.15228c-35.56617-1.02625-65.74588,10.43588-65.74588,10.43588A173.123,173.123,0,0,0,367.83212,747.1873Z"
     transform="translate(-220 -111.29276)"
     fill="#6c757d"
     id="path34" />
  <path
     d="M370.35844,722.64051c25.40839,12.8098,62.82729,14.41132,62.82729,14.41132s-3.77625-19.16725-29.18465-31.977-62.82729-14.41132-62.82729-14.41132S344.95,709.83072,370.35844,722.64051Z"
     transform="translate(-220 -111.29276)"
     fill="#6c757d"
     id="path36" />
  <polygon
     points="760 63 760 0 63 0 0 0 0 63 0 300 0 363 0 624 63 624 63 363 760 363 760 300 63 300 63 63 760 63"
     fill="#e6e6e6"
     id="polygon38" />
  <rect
     x="697"
     y="5"
     width="63"
     height="618"
     fill="#e6e6e6"
     id="rect40" />
  <path
     d="M340.133,572.30733c-5.80748,9.01245-12.27029,9.30079-17.741,5.77553q-.19061-.12283-.37607-.24961-.37394-.255-.72573-.5269c-4.6654-3.604-6.37025-9.38409-.96931-17.76564,5.5893-8.67387,21.82-13.70656,23.02977-14.07243l.00168,0,.06935-.02079S345.94,563.29562,340.133,572.30733Z"
     transform="translate(-220 -111.29276)"
     fill="#e6e6e6"
     id="path44" />
  <path
     d="M743.133,341.13182c-5.80748,9.01245-12.27029,9.30079-17.741,5.77553q-.19061-.12283-.37607-.24962-.37393-.255-.72573-.52689c-4.6654-3.604-6.37025-9.38409-.96931-17.76565,5.5893-8.67387,21.82-13.70656,23.02977-14.07243l.00168,0,.06935-.0208S748.94,332.1201,743.133,341.13182Z"
     transform="translate(-220 -111.29276)"
     fill="#e6e6e6"
     id="path46" />
  <path
     d="M513.16781,274.24629c7.26272,7.887,5.91683,14.21463,1.12929,18.62325q-.16682.15362-.33616.30123-.3408.29781-.69244.56994c-4.66124,3.60936-10.68432,3.80612-17.43863-3.52872-6.98987-7.59065-7.77994-24.5653-7.82987-25.82822l.00047-.00162-.0027-.07234S505.90569,266.36,513.16781,274.24629Z"
     transform="translate(-220 -111.29276)"
     fill="#e6e6e6"
     id="path48" />
</svg>
