<svg xmlns="http://www.w3.org/2000/svg" xmlns:xlink="http://www.w3.org/1999/xlink" width="500" height="500" viewBox="0 0 500 500"><defs><clipPath id="a"><path transform="scale(10.71429)" fill="none" d="M-28-19h56v38h-56z"/></clipPath><clipPath id="b"><path transform="scale(10.71444)" fill="none" d="M-37.333-37.333h74.666v74.666h-74.666z"/></clipPath><clipPath id="c"><path d="M-457.154-457.154h914.3v914.3h-914.3z" fill="none"/></clipPath><clipPath id="d"><path transform="scale(10.71429)" fill="none" d="M-26.667-37.333h53.333v74.667h-53.333z"/></clipPath><clipPath id="e"><path d="M-457.143-457.14h914.286v914.286h-914.286z" fill="none"/></clipPath><clipPath id="f"><path transform="scale(10.71429)" fill="none" d="M-24-37.333h48v74.667h-48z"/></clipPath><clipPath id="g"><path d="M-457.143-457.143h914.286v914.286h-914.286z" fill="none"/></clipPath><clipPath id="h"><path transform="scale(10.71423)" fill="none" d="M-37.334-31.333h74.667v62.667h-74.667z"/></clipPath><clipPath id="i"><path d="M-457.138-449.998h914.28v914.281h-914.28z" fill="none"/></clipPath><clipPath id="j"><path transform="scale(10.71429)" fill="none" d="M-30.667-37.333h61.333v74.667h-61.333z"/></clipPath><clipPath id="k"><path d="M-457.143-457.143h914.286v914.286h-914.286z" fill="none"/></clipPath><clipPath id="l"><path transform="scale(10.71432)" fill="none" d="M-22-37.333h44v74.666h-44z"/></clipPath><clipPath id="m"><path d="M-464.287-457.143h914.289v914.289h-914.29z" fill="none"/></clipPath><symbol viewBox="-300 -203.571 600 407.143" id="n"><g clip-path="url(#a)" fill="#c2e438" stroke-miterlimit="10" font-family="none" font-weight="none" font-size="none" text-anchor="none" style="mix-blend-mode:normal"><path d="M-246.429 182.143h169.565C-120.58 155.903-150 108.17-150 53.57-150-1.029-120.579-48.76-76.864-75h-201.707v223.779c0 18.396 14.421 33.364 32.142 33.364M0-75c-70.896 0-128.571 57.675-128.571 128.571 0 70.897 57.675 128.572 128.571 128.572S128.571 124.468 128.571 53.57C128.571-17.325 70.896-75 0-75m246.429 257.143c17.721 0 32.142-14.968 32.142-33.364V-21.43h-75c-5.914 0-10.714-4.8-10.714-10.714 0-5.914 4.8-10.714 10.714-10.714h75V-75H76.864C120.58-48.76 150-1.029 150 53.571c0 54.6-29.421 102.333-73.136 128.572zm0-331.222H59.957a10.718 10.718 0 0 1-8.786-4.575l-19.928-28.489H-246.43c-17.721 0-32.142 14.968-32.142 33.364v52.35H278.57v-19.285c0-18.397-14.421-33.365-32.142-33.365m0-33.064h-53.572v10.714h53.572zm-117.858 0H96.43v10.714h32.142zm-375-21.428H36.814c3.493 0 6.772 1.703 8.775 4.575l19.94 28.489H75v-22.35c0-5.914 4.8-10.714 10.714-10.714h53.572c5.914 0 10.714 4.8 10.714 10.714v22.35h21.429v-22.35c0-5.914 4.8-10.714 10.714-10.714h75c5.914 0 10.714 4.8 10.714 10.714v27C286.747-157.382 300-138.13 300-115.714v264.493c0 30.214-24.032 54.792-53.571 54.792H-246.43c-29.539 0-53.571-24.578-53.571-54.792V-148.78c0-30.214 24.032-54.792 53.571-54.792"/><path d="M0-10.714c-35.454 0-64.286 28.832-64.286 64.285 0 35.454 28.832 64.286 64.286 64.286s64.286-28.832 64.286-64.286c0-35.453-28.832-64.285-64.286-64.285m0 150c-47.26 0-85.714-38.454-85.714-85.715 0-47.26 38.453-85.714 85.714-85.714 47.26 0 85.714 38.454 85.714 85.714 0 47.261-38.453 85.715-85.714 85.715M-252.183-53.571h54.364a4.957 4.957 0 0 1 4.96 4.96v32.936a4.957 4.957 0 0 1-4.96 4.96h-54.364a4.957 4.957 0 0 1-4.96-4.96v-32.936a4.957 4.957 0 0 1 4.96-4.96"/></g></symbol><symbol viewBox="-400 -400 800 800" id="o"><g clip-path="url(#b)" fill="none" stroke-miterlimit="10" font-family="none" font-weight="none" font-size="none" text-anchor="none" style="mix-blend-mode:normal"><g clip-path="url(#c)" fill="#a5d837"><path d="M334.25 243.826 81.434 305.27l-45.344 11.014-.043.015-221.146 53.743c-26.086 6.315-52.4-9.714-58.73-35.786l-61.457-252.832-11-45.344-.029-.028-53.744-221.16c-6.3-26.058 9.715-52.387 35.8-58.73l252.819-61.444 45.343-11.014.043-.015 221.16-53.743a48.543 48.543 0 0 1 11.444-1.372c21.929 0 41.872 14.93 47.272 37.172l61.458 252.818 11 45.344c.014.014.014.028.029.043l53.743 221.146c6.3 26.057-9.714 52.386-35.8 58.73m-66.973 72.043H158.905l147.26-35.772 8.514-2.057c-4.9 21.629-24.3 37.83-47.4 37.83m-583.166-48.587V158.91l35.786 147.259 2.057 8.5c-21.643-4.9-37.843-24.286-37.843-47.386m48.6-583.166h108.373l-147.259 35.772-8.514 2.071c4.9-21.643 24.3-37.843 47.4-37.843m583.166 48.6v108.374l-35.786-147.274-2.057-8.5c21.643 4.9 37.843 24.286 37.843 47.4m81.944 445.664v-.014L344.451-41.307V-267.28c0-41.43-32.83-75.23-73.83-77.001-11.386-39.372-52-63.287-92.258-53.544l-219.675 53.372h-225.975c-41.429 0-75.23 32.83-77 73.83-39.359 11.386-63.273 51.972-53.545 92.244l53.373 219.689v225.975c0 41.457 32.9 75.3 73.958 77 9.686 33.387 40.258 55.716 73.944 55.716 6 0 12.1-.714 18.186-2.186l219.675-53.372h225.974c41.415 0 75.23-32.829 77.001-73.83 39.372-11.371 63.273-51.972 53.544-92.23"/><path d="M-201.466 186.864-88.678-98.583l231.203 201.86c5.943 5.214 14.957 4.586 20.157-1.357 5.186-5.943 4.572-14.972-1.371-20.158L71.61 3.447l39.957-72.301L280.341 70.134a14.237 14.237 0 0 0 9.072 3.257c4.114 0 8.214-1.772 11.029-5.2 5.014-6.086 4.143-15.1-1.943-20.115L116.453-101.84a14.37 14.37 0 0 0-11.757-3 14.263 14.263 0 0 0-9.829 7.114l-45.272 81.93-134.716-117.616a14.26 14.26 0 0 0-12.772-3.129 14.28 14.28 0 0 0-9.914 8.629l-120.23 304.276c-2.9 7.329.685 15.629 8.028 18.529 1.729.685 3.5 1.014 5.243 1.014 5.7 0 11.086-3.429 13.3-9.043M159.672 124.475l-366.662 89.087c-7.672 1.871-12.372 9.585-10.5 17.257 1.585 6.529 7.428 10.914 13.857 10.914 1.114 0 2.257-.128 3.4-.4l366.663-89.1c7.657-1.858 12.357-9.587 10.5-17.258-1.872-7.658-9.572-12.415-17.258-10.5M297.174 91.061l-91.672 22.272c-7.658 1.857-12.358 9.586-10.5 17.257 1.585 6.529 7.428 10.915 13.871 10.915a13.81 13.81 0 0 0 3.386-.415l91.673-22.271c7.657-1.857 12.357-9.586 10.5-17.258-1.872-7.657-9.572-12.386-17.258-10.5M19.847-184.376c1.343-.314 2.7-.471 4.058-.485 1.828 0 3.614.357 5.3.9.4.128.757.342 1.128.5a16.607 16.607 0 0 1 3.286 1.785c1.1.757 2 1.686 2.872 2.643.514.572 1.114 1.043 1.557 1.686 1.171 1.729 2.114 3.629 2.628 5.729.543 2.285.615 4.571.258 6.771-.115.629-.5 1.157-.658 1.772-.443 1.5-.814 3.028-1.628 4.357-.229.385-.643.628-.9.986-1.015 1.414-2.1 2.814-3.529 3.857-.071.057-.157.071-.228.114-1.743 1.243-3.715 2.229-5.915 2.771-1.114.272-2.2.072-3.3.129-1.186.043-2.386.314-3.528.129-6.615-1.086-12.3-5.972-13.972-12.858-2.229-9.143 3.486-18.486 12.571-20.786m4.186 62.444c3.557 0 7.143-.414 10.743-1.286h.043c24.472-5.957 39.558-30.686 33.615-55.115-5.914-24.572-30.758-39.743-55.43-33.786-24.386 6.157-39.4 30.958-33.5 55.287 5.072 20.857 23.872 34.9 44.53 34.9"/></g></g></symbol><symbol viewBox="-285.714 -400 571.429 800" id="p"><g clip-path="url(#d)" fill="none" stroke-miterlimit="10" font-family="none" font-weight="none" font-size="none" text-anchor="none" style="mix-blend-mode:normal"><g clip-path="url(#e)"><path d="M257.143 128.086c0 61.885-117.757 114.171-257.143 114.171-139.386 0-257.143-52.286-257.143-114.171V-29.243C-211.343 18.4-114.714 50.63 0 50.63c114.714 0 211.343-32.229 257.143-79.872zM200 284.314c0 42.072-80.357 87.115-200 87.115s-200-45.043-200-87.115V230.8c51.186 24.871 121.357 40.029 200 40.029S148.814 255.67 200 230.8zM-252.486-189.57c2.957 2.8 6.1 5.542 9.415 8.228.942.772 1.842 1.543 2.814 2.3 3.7 2.872 7.571 5.686 11.686 8.414v129.715c-18.086-15.515-28.572-32.915-28.572-51.2V-194c.572.586 1.229 1.143 1.814 1.714.915.915 1.886 1.815 2.843 2.715M0-371.43c139.386 0 257.143 52.286 257.143 114.172 0 31.043-30.186 59.843-77.986 80.771 4.172-7.343 6.557-15.114 6.557-23.243 0-48.928-79.843-85.814-185.714-85.814s-185.714 36.886-185.714 85.814c0 8.129 2.385 15.9 6.557 23.258-47.8-20.943-77.986-49.743-77.986-80.786 0-61.886 117.757-114.172 257.143-114.172m157.143 233.943a406.722 406.722 0 0 0 9.714-3.3 459.943 459.943 0 0 0 5.314-1.914c5.858-2.171 11.572-4.443 17.058-6.829.4-.171.828-.342 1.228-.514 3.286-1.443 6.4-2.971 9.543-4.486V-21.4c-12.629 6.971-27.029 13.257-42.857 18.8zm-71.429 16.5c3.929-.6 7.857-1.2 11.7-1.871 1.9-.329 3.743-.7 5.615-1.057a482.69 482.69 0 0 0 17.571-3.629c1.857-.414 3.729-.828 5.571-1.257.786-.2 1.615-.357 2.4-.557V6.086c-13.585 3.585-27.914 6.6-42.857 9.043zm-71.428 6.757a408.54 408.54 0 0 0 30.685-2.114c1.643-.128 3.243-.3 4.872-.443 2.428-.2 4.9-.357 7.3-.585V18.97c-13.929 1.486-28.257 2.372-42.857 2.758zm-142.857-15.128c.8.214 1.642.371 2.442.571 1.786.415 3.615.815 5.429 1.215a428.649 428.649 0 0 0 17.771 3.671c1.815.343 3.6.714 5.443 1.029 3.872.671 7.815 1.285 11.772 1.885V15.13c-14.943-2.443-29.272-5.458-42.857-9.043zm-28.572-70.372c0-27.028 67.2-57.242 157.143-57.242s157.143 30.214 157.143 57.242c0 22.758-47.757 47.715-116.529 55.043-7.743.572-15.571 1-23.514 1.229-11.286.357-22.9.357-34.229 0a523.026 523.026 0 0 1-23.471-1.229c-68.786-7.328-116.543-32.285-116.543-55.043m-33.257 49.715c.271.128.557.228.829.357 5.614 2.443 11.471 4.757 17.485 6.986 1.686.628 3.4 1.242 5.129 1.857a358.843 358.843 0 0 0 9.814 3.328V-2.6C-172.97-8.143-187.37-14.429-200-21.4v-133.129c3.157 1.529 6.3 3.072 9.6 4.515M-57.143 18.97V-117.37c2.386.228 4.857.385 7.272.585 1.657.143 3.257.315 4.914.443a408.686 408.686 0 0 0 30.671 2.114V21.73c-14.6-.386-28.928-1.272-42.857-2.758M257.143-194v101.886c0 18.285-10.486 35.685-28.572 51.2V-170.63c4.1-2.728 7.972-5.528 11.672-8.414.986-.757 1.9-1.543 2.857-2.314 3.3-2.686 6.429-5.414 9.371-8.2.958-.914 1.943-1.8 2.872-2.729.571-.571 1.228-1.128 1.8-1.714m28.571-63.257C285.714-337.3 160.214-400 0-400s-285.714 62.7-285.714 142.743v165.143c0 1.557.357 3.057.443 4.6-.115.757-.443 1.443-.443 2.228v213.372c0 32.814 21.343 62.614 57.271 86.471-.014.2-.128.386-.128.6v69.157C-228.571 349.186-128.171 400 0 400s228.571-50.814 228.571-115.686v-69.157c0-.214-.114-.4-.128-.6 35.928-23.857 57.271-53.657 57.271-86.471V-85.286c0-.785-.328-1.471-.443-2.228.086-1.543.443-3.043.443-4.6z" fill="#85cb36"/></g></g></symbol><symbol viewBox="-257.143 -400 514.286 800" id="q"><g clip-path="url(#f)" fill="none" stroke-miterlimit="10" font-family="none" font-weight="none" font-size="none" text-anchor="none" style="mix-blend-mode:normal"><g clip-path="url(#g)" fill="#59b935"><path d="M228.571-214.286c0 23.629-19.228 42.857-42.857 42.857h-371.428c-23.629 0-42.857-19.228-42.857-42.857V-328.57c0-23.629 19.228-42.858 42.857-42.858h371.428c23.629 0 42.857 19.229 42.857 42.858zm-114.285 100h-228.572v-28.571h228.572zm42.857 334.229C132.67 232.429 108.814 241 85.714 247.07V85.714c0-7.9-6.385-14.285-14.285-14.285H-71.43c-7.9 0-14.285 6.385-14.285 14.285v161.657c-34.9-8.957-60.129-21.057-71.429-27.1V-85.714h314.286zm-214.286-44.157c14.557 3.9 35.914 8.157 60.972 8.157 16.614 0 34.728-1.914 53.314-6.986v76.357c-42.557 7.3-81.372 5.643-114.286.029zm114.286-28.757c-48.114 15.785-95.286 4.857-114.286-.986V100H57.143zm0 167.257H-57.143v-31.143c17.5 2.771 36.429 4.514 56.629 4.514 18.257 0 37.6-1.528 57.657-4.786zM28.57 371.429H-28.57v-28.572H28.57zM185.714-400h-371.428c-39.386 0-71.429 32.043-71.429 71.429v114.285c0 39.386 32.043 71.429 71.429 71.429h42.857v28.571h-28.572c-7.9 0-14.285 6.4-14.285 14.286v328.571c0 4.886 2.5 9.429 6.614 12.058 3.071 1.942 38.086 23.657 93.386 36.885v51.057c0 7.9 6.385 14.286 14.285 14.286h14.286v42.857c0 7.9 6.386 14.286 14.286 14.286h85.714c7.9 0 14.286-6.386 14.286-14.286v-42.857h14.286c7.9 0 14.285-6.386 14.285-14.286V277.1c29.586-7.286 60.586-18.771 92.486-35.943a14.304 14.304 0 0 0 7.514-12.586V-100c0-7.886-6.385-14.286-14.285-14.286h-28.572v-28.571h42.857c39.386 0 71.429-32.043 71.429-71.429V-328.57c0-39.386-32.043-71.429-71.429-71.429"/><path d="M171.429-257.143c0 23.629-19.229 42.857-42.858 42.857H-128.57c-23.629 0-42.858-19.228-42.858-42.857v-28.571c0-23.629 19.229-42.857 42.858-42.857H128.57c23.629 0 42.858 19.228 42.858 42.857zm-42.858-100H-128.57c-39.386 0-71.429 32.043-71.429 71.429v28.571c0 39.386 32.043 71.429 71.429 71.429H128.57c39.386 0 71.429-32.043 71.429-71.429v-28.571c0-39.386-32.043-71.429-71.429-71.429M-28.571 142.857c7.9 0 14.285-6.386 14.285-14.286 0-7.9-6.385-14.285-14.285-14.285s-14.286 6.385-14.286 14.285 6.386 14.286 14.286 14.286M28.571 142.857c7.9 0 14.286-6.386 14.286-14.286 0-7.9-6.386-14.285-14.286-14.285-7.9 0-14.285 6.385-14.285 14.285s6.385 14.286 14.285 14.286M114.286-14.286h-228.572c-7.9 0-14.285 6.4-14.285 14.286 0 7.886 6.385 14.286 14.285 14.286h228.572c7.9 0 14.285-6.4 14.285-14.286 0-7.886-6.385-14.286-14.285-14.286"/><path d="M128.571-314.286H-128.57c-7.9 0-14.286 6.4-14.286 14.286 0 7.886 6.386 14.286 14.286 14.286H128.57c7.9 0 14.286-6.4 14.286-14.286 0-7.886-6.386-14.286-14.286-14.286M71.429-257.143H-71.43c-7.9 0-14.285 6.4-14.285 14.286 0 7.886 6.385 14.286 14.285 14.286H71.43c7.9 0 14.285-6.4 14.285-14.286 0-7.886-6.385-14.286-14.285-14.286"/></g></g></symbol><symbol viewBox="-400 -335.712 800 671.425" id="r"><g clip-path="url(#h)" fill="none" stroke-miterlimit="10" font-family="none" font-weight="none" font-size="none" text-anchor="none" style="mix-blend-mode:normal"><g clip-path="url(#i)" fill="#59b935"><path d="M-42.988 307.141h-285.44c-23.658 0-42.9-19.228-42.986-42.857H-.016c-.072 23.629-19.315 42.857-42.972 42.857m-285.44-542.854h285.44c23.7 0 42.986 19.286 42.986 42.985v14.158H-371.43v-14.158c0-23.7 19.286-42.985 43-42.985m57-57.143c0-7.87 6.414-14.285 14.285-14.285h142.857c7.885 0 14.285 6.414 14.285 14.285v28.572h-171.427zM-371.43 150H-300v14.286h-71.428zm0 85.714v-42.857h85.714c7.9 0 14.286-6.386 14.286-14.286v-42.856c0-7.9-6.386-14.286-14.286-14.286h-85.714V-150H-.002v385.712zm328.441-499.997H-71.43v-28.572c0-23.628-19.214-42.856-42.857-42.856h-142.857c-23.628 0-42.857 19.228-42.857 42.856v28.572h-28.428c-39.471 0-71.571 32.1-71.571 71.556v456.869c0 39.472 32.1 71.571 71.571 71.571h285.441c39.457 0 71.557-32.1 71.557-71.57v-456.87c0-39.456-32.1-71.556-71.557-71.556"/><path d="M-314.282-107.142c-7.886 0-14.286 6.4-14.286 14.285v85.714c0 7.886 6.4 14.286 14.286 14.286 7.886 0 14.286-6.4 14.286-14.286v-85.714c0-7.885-6.4-14.285-14.286-14.285M-314.282 21.428c-7.886 0-14.286 6.386-14.286 14.286v42.857c0 7.9 6.4 14.286 14.286 14.286 7.886 0 14.286-6.386 14.286-14.286V35.714c0-7.9-6.4-14.286-14.286-14.286M-57.14 164.285h-28.572V-50h28.572zm7.142-242.856h-42.856c-11.815 0-21.429 9.614-21.429 21.428v228.57c0 11.815 9.614 21.43 21.429 21.43h42.856c11.815 0 21.429-9.615 21.429-21.43v-228.57c0-11.814-9.614-21.428-21.429-21.428M328.572 278.57h42.857v28.571h-42.857zm-242.856 0h42.857v28.571H85.716zm42.857-385.712H85.716V-150h42.857zm242.856 0h-42.857V-150h42.857zm-42.857 314.284h42.857v42.857h-42.857zm0-285.713h42.857v42.857h-42.857zm0 71.428h42.857v42.857h-42.857zm0 71.428h42.857v42.857h-42.857zm0 71.429h42.857v42.856h-42.857zM157.144-150h142.857v457.14H157.144zM85.716 207.14h42.857V250H85.716zm42.857-242.855H85.716v-42.857h42.857zm0 214.284H85.716v-42.856h42.857zm0-71.428H85.716V64.285h42.857zm0-71.428H85.716V-7.143h42.857zM385.714-178.57H71.43c-7.9 0-14.285 6.4-14.285 14.285v485.712c0 7.9 6.385 14.285 14.285 14.285h314.284c7.9 0 14.286-6.385 14.286-14.285v-485.712c0-7.885-6.386-14.285-14.286-14.285"/></g></g></symbol><symbol viewBox="-328.571 -400 657.143 800" id="s"><g clip-path="url(#j)" fill="none" stroke-miterlimit="10" font-family="none" font-weight="none" font-size="none" text-anchor="none" style="mix-blend-mode:normal"><g clip-path="url(#k)" fill="#2ca633"><path d="M300 128.571v200c0 23.629-19.229 42.858-42.857 42.858h-514.286C-280.77 371.429-300 352.2-300 328.57V85.714h28.571c7.886 0 14.286-6.385 14.286-14.285v-100c0-7.9-6.4-14.286-14.286-14.286H-300v-199.514l124.129-129.058h433.014C280.77-371.429 300-352.2 300-328.57v200h-28.571c-7.886 0-14.286 6.385-14.286 14.285v228.572c0 7.9 6.4 14.285 14.286 14.285zM314.286-100c7.885 0 14.285-6.386 14.285-14.286V-328.57c0-39.386-32.042-71.429-71.428-71.429h-439.1c-3.886 0-7.6 1.571-10.3 4.386L-324.586-258.03a14.325 14.325 0 0 0-3.985 9.915v219.543c0 7.9 6.4 14.285 14.285 14.285h28.572v71.429h-28.572c-7.885 0-14.285 6.386-14.285 14.286V328.57c0 39.386 32.042 71.429 71.428 71.429h514.286c39.386 0 71.428-32.043 71.428-71.429V114.286c0-7.9-6.4-14.286-14.285-14.286h-28.572V85.714h13.143c8.529 0 15.429-6.9 15.429-15.428V1.143c0-8.529-6.9-15.429-15.429-15.429h-13.143V-100z"/><path d="M-142.857-314.286H-100V-200h-42.857zm-14.286 142.857h71.429c7.885 0 14.285-6.385 14.285-14.285v-142.857c0-7.9-6.4-14.286-14.285-14.286h-71.429c-7.886 0-14.286 6.386-14.286 14.286v142.857c0 7.9 6.4 14.285 14.286 14.285M-214.286-100h-42.857v-114.286h42.857zm28.572 14.286v-142.857c0-7.9-6.4-14.286-14.286-14.286h-71.429c-7.885 0-14.285 6.386-14.285 14.286v142.857c0 7.9 6.4 14.285 14.285 14.285H-200c7.886 0 14.286-6.385 14.286-14.285M-14.286-314.286h42.857V-200h-42.857zM-28.57-171.429h71.428c7.886 0 14.286-6.385 14.286-14.285v-142.857c0-7.9-6.4-14.286-14.286-14.286H-28.57c-7.886 0-14.286 6.386-14.286 14.286v142.857c0 7.9 6.4 14.285 14.286 14.285M100-314.286h42.857V-200H100zM85.714-171.429h71.429c7.886 0 14.286-6.385 14.286-14.285v-142.857c0-7.9-6.4-14.286-14.286-14.286H85.714c-7.885 0-14.285 6.386-14.285 14.286v142.857c0 7.9 6.4 14.285 14.285 14.285M257.143-200h-42.857v-114.286h42.857zm28.571 14.286v-142.857c0-7.9-6.4-14.286-14.285-14.286H200c-7.886 0-14.286 6.386-14.286 14.286v142.857c0 7.9 6.4 14.285 14.286 14.285h71.429c7.885 0 14.285-6.385 14.285-14.285M14.286 314.286v-71.429H100c7.886 0 14.286-6.386 14.286-14.286V200h42.857v114.286zm-185.715-71.429h157.143v71.429h-157.143zm157.143-114.286h-157.143V42.857h157.143zm28.572 14.286v-100h71.428v171.429H14.286zm-185.715 14.286h157.143v57.143h-157.143zm328.572 14.286h-42.857V42.857h42.857zm14.286-157.143h-357.143C-193.6 14.286-200 20.67-200 28.57v300c0 7.9 6.4 14.286 14.286 14.286h357.143c7.885 0 14.285-6.386 14.285-14.286v-300c0-7.9-6.4-14.285-14.285-14.285"/></g></g></symbol><symbol viewBox="-235.715 -400 471.43 800" id="t"><g clip-path="url(#l)" fill="none" stroke-miterlimit="10" font-family="none" font-weight="none" font-size="none" text-anchor="none" style="mix-blend-mode:normal"><g clip-path="url(#m)" fill="#019532"><path d="M191.156 354.314c-5.257 2.7-11.714.843-14.714-4.214L46.856 131.728V80.585l148.986 258.272a10.897 10.897 0 0 1 1.014 8.643c-.857 2.943-2.842 5.328-5.571 6.743zm-172.872 6.029c0 6.114-4.985 11.085-11.143 11.085C.984 371.428-4 366.457-4 360.343V95.499h22.285v44.072zM-162.13 350.1c-3.014 5.057-9.485 6.9-14.871 4.143-2.729-1.415-4.714-3.8-5.572-6.743-.87-2.929-.485-5.986 1.03-8.643L-32.574 80.785v50.943zm81.844-332.316v-36.471H94.57v36.471c0 6-5.1 11.086-11.143 11.086h-25.9c-.071-.271-.214-.5-.285-.771-.315-1.086-.786-2.086-1.172-3.129-.657-1.8-1.328-3.571-2.171-5.257-.543-1.114-1.2-2.129-1.829-3.2-.9-1.5-1.814-2.986-2.857-4.386a46.427 46.427 0 0 0-2.371-2.943 53.774 53.774 0 0 0-3.5-3.714 59.14 59.14 0 0 0-2.815-2.529c-1.328-1.1-2.7-2.1-4.143-3.057-1.028-.7-2.057-1.4-3.142-2.014-1.543-.9-3.158-1.643-4.815-2.386-1.085-.485-2.128-1-3.257-1.414-1.871-.7-3.843-1.186-5.8-1.657-1-.243-1.943-.572-2.943-.743-3.028-.543-6.114-.857-9.286-.857-3.185 0-6.271.314-9.3.857-1.028.186-1.985.514-2.985.757-1.972.472-3.929.957-5.786 1.643-1.143.414-2.186.943-3.286 1.429-1.643.742-3.257 1.471-4.814 2.371-1.086.629-2.1 1.329-3.157 2.014-1.415.972-2.815 1.957-4.129 3.043a67.08 67.08 0 0 0-2.814 2.529 49.722 49.722 0 0 0-3.486 3.671 50.6 50.6 0 0 0-2.371 2.929 47.303 47.303 0 0 0-2.815 4.3c-.642 1.057-1.271 2.1-1.828 3.214-.814 1.6-1.472 3.272-2.1 4.957-.4 1.115-.857 2.172-1.2 3.315-.114.357-.272.671-.372 1.028h-25.843c-6.042 0-11.142-5.086-11.142-11.086m-63.558-87.214h301.973v22.171h-301.972zM-16.43 40.213C-15.073 28.342-4.944 19.384 7.14 19.384c12.086 0 22.215 8.958 23.672 21.543.129.729.186 1.486.186 2.229 0 1.528-.157 2.943-.657 5.6-.043.257-.172 1.014-.729 2.386-.243.614-.671 1.571-.829 2.228-.457.972-1.014 1.886-1.785 3.057-.957 1.486-2.157 2.829-3.943 4.358-2.429 2.17-5 3.7-8.2 4.728-1.986.714-3.529 1.1-3.757 1.172-.429 0-1.058.057-1.629.114l-3.671-.043-4.229-.586c-.786-.228-1.629-.471-2.7-.857-2.657-.828-5.214-2.357-7.829-4.686-4.014-3.457-6.557-8.3-7.471-14.728l-.157-1.229c-.057-.471-.129-.843-.129-1.514 0-.743.057-1.5.286-2.943m-16.143 291.072c-.8.543-1.586 1.058-2.257 1.758l-61.4-20.4a14.278 14.278 0 0 0-4.972-9.258l68.629-115.671zm145.858-18.642-61.4 20.4c-1.43-1.486-3.143-2.543-5.03-3.286V187.714l69.773 117.571c-1.772 2.129-3.015 4.615-3.343 7.358M66.499 57.442h16.928c21.9 0 39.715-17.786 39.715-39.658v-36.471h49.271c7.9 0 14.286-6.4 14.286-14.286v-50.743c0-7.886-6.385-14.286-14.286-14.286H-158.13c-7.9 0-14.285 6.4-14.285 14.286v50.743c0 7.886 6.385 14.286 14.285 14.286h49.272v36.471c0 21.872 17.814 39.658 39.714 39.658h17.072l-154.215 267.13c-5.471 9.5-6.786 20.5-3.7 31 3.1 10.514 10.172 19.056 20.057 24.142 5.786 2.986 12 4.4 18.129 4.4 13.614 0 26.843-7 34.229-19.428l22.085-37.215c.243.086.4.286.643.372 4.5 1.485 9.057.428 12.643-2.115l64.186 21.3c.943 3.015 2.772 5.572 5.443 7.415v5.9c0 21.871 17.814 39.657 39.714 39.657s39.715-17.786 39.715-39.657v-4.315c4.128-1.642 6.957-5 8.214-9l64.186-21.3c3.129 2.2 6.943 3.1 10.886 2.329l21.729 36.629c7.342 12.371 20.5 19.371 34.171 19.371 6.143 0 12.429-1.428 18.329-4.414 9.728-5.015 16.814-13.557 19.9-24.072 3.086-10.485 1.786-21.5-3.672-30.986zM193.444-142.856H58.386c29.143-17.5 48.757-49.315 48.757-85.715 0-55.143-44.871-100-100-100s-100 44.857-100 100c0 36.4 19.614 68.215 48.757 85.715h-149.344c-7.542 0-13.7-6.215-13.7-13.843V-300h100c7.9 0 14.287-6.4 14.287-14.286 0-7.886-6.386-14.286-14.286-14.286h-100v-12.943c0-7.629 6.157-13.843 13.7-13.843h151.871c3.915 0 7.658-1.614 10.358-4.457l11.043-11.614h213.343c7.714 0 13.972 6.357 13.972 14.185v28.672h-100c-7.9 0-14.287 6.4-14.287 14.286 0 7.885 6.386 14.285 14.286 14.285h100v143.3c0 7.63-6.157 13.844-13.7 13.844m-257.729-85.715c0-39.386 32.043-71.429 71.429-71.429s71.429 32.043 71.429 71.43c0 39.385-32.043 71.428-71.43 71.428-39.385 0-71.428-32.043-71.428-71.429M193.172-400H-26.314a14.289 14.289 0 0 0-10.358 4.457l-11.042 11.614h-145.73c-23.314 0-42.271 19.03-42.271 42.415V-156.7c0 23.386 18.957 42.414 42.271 42.414h386.888c23.314 0 42.271-19.028 42.271-42.414v-200.544c0-23.586-19.086-42.757-42.543-42.757"/><path d="M7.143-214.285c-7.886 0-14.286-6.414-14.286-14.286 0-7.871 6.4-14.286 14.286-14.286 7.886 0 14.286 6.415 14.286 14.286 0 7.872-6.4 14.286-14.286 14.286m0-57.143c-23.629 0-42.857 19.229-42.857 42.857 0 23.629 19.228 42.857 42.857 42.857C30.772-185.714 50-204.942 50-228.57c0-23.628-19.228-42.857-42.857-42.857"/></g></g></symbol></defs><g data-paper-data="&quot;photography-camera-svgrepo-com.svg&quot;" fill="none" stroke-miterlimit="10" font-family="none" font-weight="none" font-size="none" text-anchor="none" style="mix-blend-mode:normal" transform="rotate(37) scale(.20289)"><use x="3248.225" y="467.548" xlink:href="#n" width="600" height="407.143" overflow="visible" opacity=".2"/><use x="1765.142" y="-1500.569" xlink:href="#n" width="600" height="407.143" overflow="visible" opacity=".2"/><use x="1280.108" y="1950.631" xlink:href="#n" width="600" height="407.143" overflow="visible" opacity=".2"/><use x="-202.975" y="-17.486" xlink:href="#n" width="600" height="407.143" overflow="visible" opacity=".2"/></g><use x="1758.868" y="-813.686" transform="rotate(30) scale(.16085)" xlink:href="#o" width="800" height="800" overflow="visible" opacity=".2" data-paper-data="&quot;picture-mount-sun-svgrepo-com.svg&quot;" fill="none" stroke-miterlimit="10" font-family="none" font-weight="none" font-size="none" text-anchor="none" style="mix-blend-mode:normal"/><g data-paper-data="&quot;lamp-primelens-svgrepo-com.svg&quot;" fill="none" stroke-miterlimit="10" font-family="none" font-weight="none" font-size="none" text-anchor="none" style="mix-blend-mode:normal" transform="rotate(-14) scale(.14288)"><use x="2642.229" y="1916.923" xlink:href="#p" width="571.429" height="800" overflow="visible" opacity=".2"/><use x="-753.292" y="1070.325" xlink:href="#p" width="571.429" height="800" overflow="visible" opacity=".2"/></g><g data-paper-data="&quot;photography-light-svgrepo-com.svg&quot;" fill="none" stroke-miterlimit="10" font-family="none" font-weight="none" font-size="none" text-anchor="none" style="mix-blend-mode:normal" transform="rotate(40) scale(.20491)"><use x="2496.181" y="-155.651" xlink:href="#q" width="514.286" height="800" overflow="visible" opacity=".2"/><use x="927.695" y="-2024.899" xlink:href="#q" width="514.286" height="800" overflow="visible" opacity=".2"/></g><g data-paper-data="&quot;photography-photographer-svgrepo-com.svg&quot;" fill="none" stroke-miterlimit="10" font-family="none" font-weight="none" font-size="none" text-anchor="none" style="mix-blend-mode:normal" transform="rotate(33) scale(.18365)"><use x="1641.25" y="1227.894" xlink:href="#r" width="800" height="671.425" overflow="visible" opacity=".2"/><use x="158.427" y="-1055.453" xlink:href="#r" width="800" height="671.425" overflow="visible" opacity=".2"/></g><use x="872.104" y="1774.4" transform="rotate(-12) scale(.15555)" xlink:href="#s" width="657.143" height="800" overflow="visible" opacity=".2" data-paper-data="&quot;photography-memory-svgrepo-com.svg&quot;" fill="none" stroke-miterlimit="10" font-family="none" font-weight="none" font-size="none" text-anchor="none" style="mix-blend-mode:normal"/><use x="757.565" y="335.364" transform="rotate(17) scale(.19323)" xlink:href="#t" width="471.43" height="800" overflow="visible" opacity=".2" data-paper-data="&quot;icon-photography-tripod-svgrepo-com.svg&quot;" fill="none" stroke-miterlimit="10" font-family="none" font-weight="none" font-size="none" text-anchor="none" style="mix-blend-mode:normal"/></svg>