<?xml version="1.0" encoding="UTF-8" standalone="no"?>
<!-- Created with Inkscape (http://www.inkscape.org/) -->

<svg
   xmlns:dc="http://purl.org/dc/elements/1.1/"
   xmlns:cc="http://creativecommons.org/ns#"
   xmlns:rdf="http://www.w3.org/1999/02/22-rdf-syntax-ns#"
   xmlns:svg="http://www.w3.org/2000/svg"
   xmlns="http://www.w3.org/2000/svg"
   xmlns:sodipodi="http://sodipodi.sourceforge.net/DTD/sodipodi-0.dtd"
   xmlns:inkscape="http://www.inkscape.org/namespaces/inkscape"
   width="24"
   height="24"
   viewBox="0 0 6.35 6.35"
   version="1.1"
   id="svg8"
   inkscape:version="0.92.1 r15371"
   sodipodi:docname="icon-iso.svg">
  <defs
     id="defs2" />
  <sodipodi:namedview
     id="base"
     pagecolor="#ffffff"
     bordercolor="#666666"
     borderopacity="1.0"
     inkscape:pageopacity="0.0"
     inkscape:pageshadow="2"
     inkscape:zoom="19.136364"
     inkscape:cx="24"
     inkscape:cy="17.433874"
     inkscape:document-units="mm"
     inkscape:current-layer="layer1"
     showgrid="true"
     units="px"
     inkscape:window-width="1920"
     inkscape:window-height="1017"
     inkscape:window-x="-8"
     inkscape:window-y="-8"
     inkscape:window-maximized="1">
    <inkscape:grid
       type="xygrid"
       id="grid4485"
       empspacing="1" />
  </sodipodi:namedview>
  <metadata
     id="metadata5">
    <rdf:RDF>
      <cc:Work
         rdf:about="">
        <dc:format>image/svg+xml</dc:format>
        <dc:type
           rdf:resource="http://purl.org/dc/dcmitype/StillImage" />
        <dc:title></dc:title>
      </cc:Work>
    </rdf:RDF>
  </metadata>
  <g
     inkscape:label="Layer 1"
     inkscape:groupmode="layer"
     id="layer1"
     transform="translate(0,-290.64997)">
    <g
       aria-label="ISO"
       transform="matrix(0.58098485,0,0,0.58098485,-3.8512855,287.32906)"
       style="font-style:normal;font-weight:normal;font-size:5.33333349px;line-height:1.25;font-family:sans-serif;text-align:center;letter-spacing:0px;word-spacing:0px;text-anchor:middle;fill:#ffffff;fill-opacity:1;stroke:none"
       id="flowRoot5104">
      <path
         d="m 9.2343749,12.798053 q 0,0.02083 -0.010417,0.03646 -0.010417,0.01563 -0.036458,0.02604 -0.026042,0.0078 -0.070312,0.01302 -0.041667,0.0078 -0.1067708,0.0078 -0.0625,0 -0.1067709,-0.0078 -0.044271,-0.0052 -0.070312,-0.01302 -0.026042,-0.01042 -0.036458,-0.02604 -0.010417,-0.01563 -0.010417,-0.03646 V 9.5636784 q 0,-0.020833 0.010417,-0.036458 0.013021,-0.015625 0.039063,-0.023437 0.028646,-0.010417 0.070312,-0.015625 0.044271,-0.00781 0.1041667,-0.00781 0.065104,0 0.1067708,0.00781 0.044271,0.00521 0.070312,0.015625 0.026042,0.00781 0.036458,0.023437 0.010417,0.015625 0.010417,0.036458 z"
         style="font-style:normal;font-variant:normal;font-weight:normal;font-stretch:normal;font-family:Calibri;-inkscape-font-specification:Calibri;fill:#ffffff"
         id="path5131" />
      <path
         d="m 11.940104,11.920449 q 0,0.236979 -0.08854,0.421875 -0.08594,0.184896 -0.242187,0.315104 -0.153646,0.127605 -0.364583,0.192709 -0.208334,0.0651 -0.450521,0.0651 -0.169271,0 -0.315104,-0.02865 -0.14323,-0.02865 -0.257813,-0.07031 -0.111979,-0.04167 -0.190104,-0.08594 -0.075521,-0.04427 -0.1067709,-0.07552 -0.028646,-0.03125 -0.044271,-0.07813 -0.013021,-0.04948 -0.013021,-0.130208 0,-0.05729 0.00521,-0.09375 0.00521,-0.03906 0.015625,-0.0625 0.010417,-0.02344 0.026042,-0.03125 0.015625,-0.01042 0.036458,-0.01042 0.036458,0 0.1015623,0.04427 0.06771,0.04427 0.171875,0.09635 0.104167,0.05208 0.25,0.09896 0.148438,0.04427 0.341146,0.04427 0.145833,0 0.265625,-0.03906 0.122396,-0.03906 0.208333,-0.109375 0.08854,-0.07292 0.135417,-0.177083 0.04687,-0.104167 0.04687,-0.23698 0,-0.143229 -0.0651,-0.244791 -0.0651,-0.101563 -0.171875,-0.177084 -0.106771,-0.07813 -0.244792,-0.140625 -0.135416,-0.0651 -0.278646,-0.130208 -0.143229,-0.06771 -0.278645,-0.148437 -0.135417,-0.08073 -0.242188,-0.190105 -0.106771,-0.109375 -0.174479,-0.255208 -0.065104,-0.148437 -0.065104,-0.354167 0,-0.210937 0.075521,-0.3749996 0.07813,-0.1666667 0.213541,-0.2786458 0.138021,-0.1119792 0.325521,-0.1692709 0.190104,-0.059896 0.408854,-0.059896 0.111979,0 0.223959,0.020833 0.114583,0.018229 0.213541,0.052083 0.101563,0.03125 0.179688,0.072917 0.07813,0.039063 0.101562,0.065104 0.02604,0.023437 0.03385,0.039063 0.0078,0.013021 0.01302,0.036458 0.0052,0.020833 0.0078,0.052083 0.0026,0.03125 0.0026,0.080729 0,0.046875 -0.0052,0.083333 -0.0026,0.036458 -0.01042,0.0625 -0.0078,0.02344 -0.02344,0.03646 -0.01302,0.01042 -0.03125,0.01042 -0.02864,0 -0.09114,-0.03646 -0.0599,-0.036459 -0.148438,-0.080729 -0.08854,-0.046875 -0.210937,-0.083333 -0.119792,-0.039063 -0.270834,-0.039063 -0.140625,0 -0.244791,0.039063 -0.104167,0.036458 -0.171875,0.098958 -0.06771,0.0625 -0.101563,0.1484374 -0.03385,0.08594 -0.03385,0.182292 0,0.140625 0.0651,0.242187 0.0651,0.101563 0.171875,0.179688 0.109375,0.07813 0.247396,0.143229 0.138021,0.0651 0.28125,0.132812 0.143229,0.06511 0.28125,0.145834 0.138021,0.07813 0.244792,0.1875 0.109375,0.106771 0.174479,0.255208 0.06771,0.145833 0.06771,0.346354 z"
         style="font-style:normal;font-variant:normal;font-weight:normal;font-stretch:normal;font-family:Calibri;-inkscape-font-specification:Calibri;fill:#ffffff"
         id="path5133" />
      <path
         d="m 15.401042,11.141803 q 0,0.408855 -0.09635,0.73698 -0.09636,0.328125 -0.289063,0.559895 -0.190104,0.229167 -0.479167,0.354167 -0.289062,0.122396 -0.674479,0.122396 -0.380208,0 -0.658854,-0.111979 -0.276042,-0.114584 -0.458333,-0.330729 -0.179688,-0.216146 -0.26823,-0.536459 -0.08854,-0.320312 -0.08854,-0.736979 0,-0.398437 0.09635,-0.723958 0.09635,-0.325521 0.289062,-0.5520836 0.192709,-0.2291667 0.481771,-0.3515625 0.289063,-0.125 0.67448,-0.125 0.372395,0 0.648437,0.1119792 0.276042,0.1119791 0.458333,0.328125 0.184896,0.2135419 0.273438,0.5312499 0.09115,0.315104 0.09115,0.723958 z m -0.471354,0.03125 q 0,-0.286458 -0.05208,-0.53125 -0.04948,-0.247395 -0.169271,-0.427083 -0.117187,-0.182292 -0.315104,-0.2838541 -0.197916,-0.1015625 -0.489583,-0.1015625 -0.291667,0 -0.489583,0.109375 -0.197917,0.1093746 -0.322917,0.2916666 -0.122396,0.182292 -0.177084,0.427083 -0.05208,0.242188 -0.05208,0.510417 0,0.296875 0.04948,0.546875 0.04948,0.25 0.166667,0.432292 0.117188,0.179687 0.3125,0.28125 0.197917,0.09896 0.494792,0.09896 0.294271,0 0.494791,-0.109375 0.200521,-0.109375 0.322917,-0.294271 0.122396,-0.1875 0.174479,-0.432291 0.05208,-0.244792 0.05208,-0.51823 z"
         style="font-style:normal;font-variant:normal;font-weight:normal;font-stretch:normal;font-family:Calibri;-inkscape-font-specification:Calibri;fill:#ffffff"
         id="path5135" />
    </g>
    <path
       style="opacity:1;fill:#ffffff;fill-opacity:1;stroke:none;stroke-width:1.99999988;stroke-linecap:round;stroke-linejoin:round;stroke-miterlimit:4;stroke-dasharray:none;stroke-opacity:1;paint-order:stroke fill markers"
       d="M 2 5 L 2 19 L 22 19 L 22 5 L 2 5 z M 3 6 L 21 6 L 21 18 L 3 18 L 3 6 z "
       transform="matrix(0.26458333,0,0,0.26458333,0,290.64997)"
       id="rect5119" />
  </g>
</svg>
